# xmcd
#
# Track frame offsets:
#	150
#	9888
#	29622
#	34021
#	47023
#	62219
#	78293
#	95091
#	103551
#	112366
#	123863
#	137882
#	142619
#	158557
#	173377
#
# Disc length: 2455 seconds
#
# Revision: 0
# Processed by: cddbd v1.5.2PL0 Copyright (c) Steve Scherf et al.
# Submitted via: audiograbber 1.83.01
#
DISCID=b909950f
DTITLE=The Broken Circle Breakdown - Bluegrass Breakdown- 14 Instrumentals
DYEAR=1900
DGENRE=Bluegrass
TTITLE0=Will The Circle Be Unbroken
TTITLE1=The Boy Who Wouldn't Hoe Corn
TTITLE2=Dusty Mixed Feelings
TTITLE3=Wayfaring Stranger
TTITLE4=Rueben's Train
TTITLE5=Country In My Genes
TTITLE6=Further On Up The Road
TTITLE7=Where Are You Heading, Tumbleweed?
TTITLE8=Over In The Gloryland
TTITLE9=Cowboy Man
TTITLE10=If I Needed You
TTITLE11=Carved Tree Inn
TTITLE12=Sandmountain
TTITLE13=Sister Rosetta Goes Before Us
TTITLE14=Blackberry Blossom
EXTD=
EXTT0=
EXTT1=
EXTT2=
EXTT3=
EXTT4=
EXTT5=
EXTT6=
EXTT7=
EXTT8=
EXTT9=
EXTT10=
EXTT11=
EXTT12=
EXTT13=
EXTT14=
PLAYORDER=
